<svg data-v-423bf9ae="" xmlns="http://www.w3.org/2000/svg" viewBox="0 0 178.70969700226297 60" class="font"><!----><!----><!----><g data-v-423bf9ae="" id="7b7b2c16-a036-4fec-8868-a65019d71e37" fill="#AFD2E9" transform="matrix(6.451613432493594,0,0,6.451613432493594,-9.67742360287481,-28.12903590389255)"><path d="M9.15 13.52L9.15 4.36L7.92 4.36L7.92 10.99L2.00 4.36L1.50 4.36L1.50 13.52L2.73 13.52L2.73 6.97L8.65 13.52ZM17.36 8.82C18.31 8.46 18.70 7.59 18.70 6.84C18.70 5.35 17.45 4.36 15.82 4.36L12.15 4.36L12.15 13.32C13.02 13.51 14.36 13.66 15.49 13.66C17.71 13.66 19.14 12.47 19.14 10.94C19.14 9.61 18.17 8.98 17.36 8.82ZM13.38 5.52L15.53 5.52C16.68 5.52 17.45 6.00 17.45 6.97C17.45 7.81 16.68 8.39 15.53 8.39L13.38 8.39ZM15.46 12.50C14.96 12.50 14.04 12.46 13.38 12.33L13.38 9.49L15.56 9.49C16.83 9.49 17.88 9.94 17.88 10.94C17.88 11.89 16.83 12.50 15.46 12.50ZM29.20 13.52L29.20 4.36L27.97 4.36L27.97 10.99L22.05 4.36L21.56 4.36L21.56 13.52L22.79 13.52L22.79 6.97L28.71 13.52Z"></path></g><!----><!----></svg>